<mxfile host="app.diagrams.net" agent="Mozilla/5.0 (Windows NT 10.0; Win64; x64) AppleWebKit/537.36 (KHTML, like Gecko) Chrome/132.0.0.0 Safari/537.36 OPR/117.0.0.0" version="26.0.16">
  <diagram name="Página-1" id="IGAzlSoP6MUeE9S6DGsQ">
    <mxGraphModel grid="1" page="1" gridSize="10" guides="1" tooltips="1" connect="1" arrows="1" fold="1" pageScale="1" pageWidth="827" pageHeight="1169" math="0" shadow="0">
      <root>
        <mxCell id="0" />
        <mxCell id="1" parent="0" />
        <mxCell id="nm4cw_B010M74hV_i2e3-1" value="Lexer" style="swimlane;fontStyle=1;align=center;verticalAlign=top;childLayout=stackLayout;horizontal=1;startSize=26;horizontalStack=0;resizeParent=1;resizeParentMax=0;resizeLast=0;collapsible=1;marginBottom=0;whiteSpace=wrap;html=1;" vertex="1" parent="1">
          <mxGeometry x="280" y="-260" width="160" height="86" as="geometry" />
        </mxCell>
        <mxCell id="nm4cw_B010M74hV_i2e3-2" value="// Vuelve los ID´s en tokens" style="text;strokeColor=none;fillColor=none;align=left;verticalAlign=top;spacingLeft=4;spacingRight=4;overflow=hidden;rotatable=0;points=[[0,0.5],[1,0.5]];portConstraint=eastwest;whiteSpace=wrap;html=1;" vertex="1" parent="nm4cw_B010M74hV_i2e3-1">
          <mxGeometry y="26" width="160" height="26" as="geometry" />
        </mxCell>
        <mxCell id="nm4cw_B010M74hV_i2e3-3" value="" style="line;strokeWidth=1;fillColor=none;align=left;verticalAlign=middle;spacingTop=-1;spacingLeft=3;spacingRight=3;rotatable=0;labelPosition=right;points=[];portConstraint=eastwest;strokeColor=inherit;" vertex="1" parent="nm4cw_B010M74hV_i2e3-1">
          <mxGeometry y="52" width="160" height="8" as="geometry" />
        </mxCell>
        <mxCell id="nm4cw_B010M74hV_i2e3-41" style="edgeStyle=orthogonalEdgeStyle;rounded=0;orthogonalLoop=1;jettySize=auto;html=1;" edge="1" parent="nm4cw_B010M74hV_i2e3-1" source="nm4cw_B010M74hV_i2e3-4">
          <mxGeometry relative="1" as="geometry">
            <mxPoint x="80" y="170" as="targetPoint" />
          </mxGeometry>
        </mxCell>
        <mxCell id="nm4cw_B010M74hV_i2e3-4" value="+ method(type): type" style="text;strokeColor=none;fillColor=none;align=left;verticalAlign=top;spacingLeft=4;spacingRight=4;overflow=hidden;rotatable=0;points=[[0,0.5],[1,0.5]];portConstraint=eastwest;whiteSpace=wrap;html=1;" vertex="1" parent="nm4cw_B010M74hV_i2e3-1">
          <mxGeometry y="60" width="160" height="26" as="geometry" />
        </mxCell>
        <mxCell id="nm4cw_B010M74hV_i2e3-5" value="ics_Interpreter" style="swimlane;fontStyle=1;align=center;verticalAlign=top;childLayout=stackLayout;horizontal=1;startSize=26;horizontalStack=0;resizeParent=1;resizeParentMax=0;resizeLast=0;collapsible=1;marginBottom=0;whiteSpace=wrap;html=1;" vertex="1" parent="1">
          <mxGeometry x="85" y="240" width="610" height="250" as="geometry" />
        </mxCell>
        <mxCell id="nm4cw_B010M74hV_i2e3-6" value="- statements: List&amp;lt;Statement&amp;gt;" style="text;strokeColor=none;fillColor=none;align=left;verticalAlign=top;spacingLeft=4;spacingRight=4;overflow=hidden;rotatable=0;points=[[0,0.5],[1,0.5]];portConstraint=eastwest;whiteSpace=wrap;html=1;" vertex="1" parent="nm4cw_B010M74hV_i2e3-5">
          <mxGeometry y="26" width="610" height="26" as="geometry" />
        </mxCell>
        <mxCell id="nm4cw_B010M74hV_i2e3-7" value="" style="line;strokeWidth=1;fillColor=none;align=left;verticalAlign=middle;spacingTop=-1;spacingLeft=3;spacingRight=3;rotatable=0;labelPosition=right;points=[];portConstraint=eastwest;strokeColor=inherit;" vertex="1" parent="nm4cw_B010M74hV_i2e3-5">
          <mxGeometry y="52" width="610" height="8" as="geometry" />
        </mxCell>
        <mxCell id="nm4cw_B010M74hV_i2e3-8" value="&lt;div&gt;+ visitMusicStmt(ctx: IcSParser.MusicStmtContext): void&lt;/div&gt;&lt;div&gt;+ visitProgram(ctx: IcSParser.ProgramContext): void&lt;/div&gt;&lt;div&gt;+ visitPrintStatement(ctx: IcSParser.PrintStatementContext): void&lt;/div&gt;&lt;div&gt;+ visitReadStatement(ctx: IcSParser.ReadStatementContext): void&lt;/div&gt;&lt;div&gt;+ visitAssignmentStatement(ctx: IcSParser.AssignmentStatementContext): void&lt;/div&gt;&lt;div&gt;+ visitNumberExpr(ctx: IcSParser.NumberExprContext): int&lt;/div&gt;&lt;div&gt;+ visitVariableExpr(ctx: IcSParser.VariableExprContext): int&lt;/div&gt;&lt;div&gt;+ visitArithmeticExpr(ctx: IcSParser.ArithmeticExprContext): int&lt;/div&gt;&lt;div&gt;+ visitRelationalExpr(ctx: IcSParser.RelationalExprContext): bool&lt;/div&gt;&lt;div&gt;+ visitIfStmt(ctx: IcSParser.IfStmtContext): void&lt;/div&gt;&lt;div&gt;+ visitWhileStmt(ctx: IcSParser.WhileStmtContext): void&lt;/div&gt;&lt;div&gt;+ ejecutar_codigo(archivo: str): void&lt;/div&gt;&lt;div&gt;&lt;br&gt;&lt;/div&gt;" style="text;strokeColor=none;fillColor=none;align=left;verticalAlign=top;spacingLeft=4;spacingRight=4;overflow=hidden;rotatable=0;points=[[0,0.5],[1,0.5]];portConstraint=eastwest;whiteSpace=wrap;html=1;" vertex="1" parent="nm4cw_B010M74hV_i2e3-5">
          <mxGeometry y="60" width="610" height="190" as="geometry" />
        </mxCell>
        <mxCell id="nm4cw_B010M74hV_i2e3-9" value="Statement" style="swimlane;fontStyle=1;align=center;verticalAlign=top;childLayout=stackLayout;horizontal=1;startSize=26;horizontalStack=0;resizeParent=1;resizeParentMax=0;resizeLast=0;collapsible=1;marginBottom=0;whiteSpace=wrap;html=1;" vertex="1" parent="1">
          <mxGeometry x="310" y="872" width="160" height="94" as="geometry" />
        </mxCell>
        <mxCell id="nm4cw_B010M74hV_i2e3-10" value="// Clase abstracta de instrucciones" style="text;strokeColor=none;fillColor=none;align=left;verticalAlign=top;spacingLeft=4;spacingRight=4;overflow=hidden;rotatable=0;points=[[0,0.5],[1,0.5]];portConstraint=eastwest;whiteSpace=wrap;html=1;" vertex="1" parent="nm4cw_B010M74hV_i2e3-9">
          <mxGeometry y="26" width="160" height="34" as="geometry" />
        </mxCell>
        <mxCell id="nm4cw_B010M74hV_i2e3-11" value="" style="line;strokeWidth=1;fillColor=none;align=left;verticalAlign=middle;spacingTop=-1;spacingLeft=3;spacingRight=3;rotatable=0;labelPosition=right;points=[];portConstraint=eastwest;strokeColor=inherit;" vertex="1" parent="nm4cw_B010M74hV_i2e3-9">
          <mxGeometry y="60" width="160" height="8" as="geometry" />
        </mxCell>
        <mxCell id="nm4cw_B010M74hV_i2e3-12" value="+ interpretar(): void" style="text;strokeColor=none;fillColor=none;align=left;verticalAlign=top;spacingLeft=4;spacingRight=4;overflow=hidden;rotatable=0;points=[[0,0.5],[1,0.5]];portConstraint=eastwest;whiteSpace=wrap;html=1;" vertex="1" parent="nm4cw_B010M74hV_i2e3-9">
          <mxGeometry y="68" width="160" height="26" as="geometry" />
        </mxCell>
        <mxCell id="nm4cw_B010M74hV_i2e3-13" value="InstructionBlock" style="swimlane;fontStyle=1;align=center;verticalAlign=top;childLayout=stackLayout;horizontal=1;startSize=26;horizontalStack=0;resizeParent=1;resizeParentMax=0;resizeLast=0;collapsible=1;marginBottom=0;whiteSpace=wrap;html=1;" vertex="1" parent="1">
          <mxGeometry x="520" y="1012" width="160" height="110" as="geometry" />
        </mxCell>
        <mxCell id="nm4cw_B010M74hV_i2e3-14" value="- notas: List&amp;lt;ID&amp;gt;" style="text;strokeColor=none;fillColor=none;align=left;verticalAlign=top;spacingLeft=4;spacingRight=4;overflow=hidden;rotatable=0;points=[[0,0.5],[1,0.5]];portConstraint=eastwest;whiteSpace=wrap;html=1;" vertex="1" parent="nm4cw_B010M74hV_i2e3-13">
          <mxGeometry y="26" width="160" height="26" as="geometry" />
        </mxCell>
        <mxCell id="nm4cw_B010M74hV_i2e3-15" value="" style="line;strokeWidth=1;fillColor=none;align=left;verticalAlign=middle;spacingTop=-1;spacingLeft=3;spacingRight=3;rotatable=0;labelPosition=right;points=[];portConstraint=eastwest;strokeColor=inherit;" vertex="1" parent="nm4cw_B010M74hV_i2e3-13">
          <mxGeometry y="52" width="160" height="8" as="geometry" />
        </mxCell>
        <mxCell id="nm4cw_B010M74hV_i2e3-16" value="+ interpretar(): void&amp;nbsp;&lt;div&gt;// override, interpreta las notas&lt;/div&gt;" style="text;strokeColor=none;fillColor=none;align=left;verticalAlign=top;spacingLeft=4;spacingRight=4;overflow=hidden;rotatable=0;points=[[0,0.5],[1,0.5]];portConstraint=eastwest;whiteSpace=wrap;html=1;" vertex="1" parent="nm4cw_B010M74hV_i2e3-13">
          <mxGeometry y="60" width="160" height="50" as="geometry" />
        </mxCell>
        <mxCell id="nm4cw_B010M74hV_i2e3-17" value="Write" style="swimlane;fontStyle=1;align=center;verticalAlign=top;childLayout=stackLayout;horizontal=1;startSize=26;horizontalStack=0;resizeParent=1;resizeParentMax=0;resizeLast=0;collapsible=1;marginBottom=0;whiteSpace=wrap;html=1;" vertex="1" parent="1">
          <mxGeometry x="130" y="1012" width="160" height="110" as="geometry" />
        </mxCell>
        <mxCell id="nm4cw_B010M74hV_i2e3-18" value="- mensaje: String" style="text;strokeColor=none;fillColor=none;align=left;verticalAlign=top;spacingLeft=4;spacingRight=4;overflow=hidden;rotatable=0;points=[[0,0.5],[1,0.5]];portConstraint=eastwest;whiteSpace=wrap;html=1;" vertex="1" parent="nm4cw_B010M74hV_i2e3-17">
          <mxGeometry y="26" width="160" height="26" as="geometry" />
        </mxCell>
        <mxCell id="nm4cw_B010M74hV_i2e3-19" value="" style="line;strokeWidth=1;fillColor=none;align=left;verticalAlign=middle;spacingTop=-1;spacingLeft=3;spacingRight=3;rotatable=0;labelPosition=right;points=[];portConstraint=eastwest;strokeColor=inherit;" vertex="1" parent="nm4cw_B010M74hV_i2e3-17">
          <mxGeometry y="52" width="160" height="8" as="geometry" />
        </mxCell>
        <mxCell id="nm4cw_B010M74hV_i2e3-20" value="+ interpretar(): void&amp;nbsp;&lt;div&gt;// override, imprime un mensaje&lt;/div&gt;" style="text;strokeColor=none;fillColor=none;align=left;verticalAlign=top;spacingLeft=4;spacingRight=4;overflow=hidden;rotatable=0;points=[[0,0.5],[1,0.5]];portConstraint=eastwest;whiteSpace=wrap;html=1;" vertex="1" parent="nm4cw_B010M74hV_i2e3-17">
          <mxGeometry y="60" width="160" height="50" as="geometry" />
        </mxCell>
        <mxCell id="nm4cw_B010M74hV_i2e3-21" value="&amp;lt;&amp;lt;Abstract class&amp;gt;&amp;gt;" style="text;html=1;align=center;verticalAlign=middle;resizable=0;points=[];autosize=1;strokeColor=none;fillColor=none;" vertex="1" parent="1">
          <mxGeometry x="380" y="842" width="130" height="30" as="geometry" />
        </mxCell>
        <mxCell id="nm4cw_B010M74hV_i2e3-22" style="edgeStyle=orthogonalEdgeStyle;rounded=0;orthogonalLoop=1;jettySize=auto;html=1;entryX=0.463;entryY=0.012;entryDx=0;entryDy=0;entryPerimeter=0;" edge="1" parent="1" source="nm4cw_B010M74hV_i2e3-8" target="nm4cw_B010M74hV_i2e3-9">
          <mxGeometry relative="1" as="geometry" />
        </mxCell>
        <mxCell id="nm4cw_B010M74hV_i2e3-23" value="1" style="text;html=1;align=center;verticalAlign=middle;resizable=0;points=[];autosize=1;strokeColor=none;fillColor=none;" vertex="1" parent="1">
          <mxGeometry x="50" y="370" width="30" height="30" as="geometry" />
        </mxCell>
        <mxCell id="nm4cw_B010M74hV_i2e3-24" value="n" style="text;html=1;align=center;verticalAlign=middle;resizable=0;points=[];autosize=1;strokeColor=none;fillColor=none;" vertex="1" parent="1">
          <mxGeometry x="355" y="840" width="30" height="30" as="geometry" />
        </mxCell>
        <mxCell id="nm4cw_B010M74hV_i2e3-27" value="Extends" style="endArrow=block;endSize=16;endFill=0;html=1;rounded=0;entryX=0;entryY=0.5;entryDx=0;entryDy=0;exitX=0.5;exitY=0;exitDx=0;exitDy=0;" edge="1" parent="1" source="nm4cw_B010M74hV_i2e3-17" target="nm4cw_B010M74hV_i2e3-10">
          <mxGeometry width="160" relative="1" as="geometry">
            <mxPoint x="270" y="1112" as="sourcePoint" />
            <mxPoint x="430" y="1112" as="targetPoint" />
          </mxGeometry>
        </mxCell>
        <mxCell id="nm4cw_B010M74hV_i2e3-28" value="Extends" style="endArrow=block;endSize=16;endFill=0;html=1;rounded=0;entryX=1;entryY=0.5;entryDx=0;entryDy=0;exitX=0.419;exitY=0.009;exitDx=0;exitDy=0;exitPerimeter=0;" edge="1" parent="1" source="nm4cw_B010M74hV_i2e3-13" target="nm4cw_B010M74hV_i2e3-10">
          <mxGeometry width="160" relative="1" as="geometry">
            <mxPoint x="410" y="1082" as="sourcePoint" />
            <mxPoint x="570" y="1082" as="targetPoint" />
          </mxGeometry>
        </mxCell>
        <mxCell id="nm4cw_B010M74hV_i2e3-30" value="Parser" style="swimlane;fontStyle=1;align=center;verticalAlign=top;childLayout=stackLayout;horizontal=1;startSize=26;horizontalStack=0;resizeParent=1;resizeParentMax=0;resizeLast=0;collapsible=1;marginBottom=0;whiteSpace=wrap;html=1;" vertex="1" parent="1">
          <mxGeometry x="280" y="-86" width="160" height="86" as="geometry" />
        </mxCell>
        <mxCell id="nm4cw_B010M74hV_i2e3-31" value="// Construye el AST" style="text;strokeColor=none;fillColor=none;align=left;verticalAlign=top;spacingLeft=4;spacingRight=4;overflow=hidden;rotatable=0;points=[[0,0.5],[1,0.5]];portConstraint=eastwest;whiteSpace=wrap;html=1;" vertex="1" parent="nm4cw_B010M74hV_i2e3-30">
          <mxGeometry y="26" width="160" height="26" as="geometry" />
        </mxCell>
        <mxCell id="nm4cw_B010M74hV_i2e3-32" value="" style="line;strokeWidth=1;fillColor=none;align=left;verticalAlign=middle;spacingTop=-1;spacingLeft=3;spacingRight=3;rotatable=0;labelPosition=right;points=[];portConstraint=eastwest;strokeColor=inherit;" vertex="1" parent="nm4cw_B010M74hV_i2e3-30">
          <mxGeometry y="52" width="160" height="8" as="geometry" />
        </mxCell>
        <mxCell id="nm4cw_B010M74hV_i2e3-33" value="+ method(type): type" style="text;strokeColor=none;fillColor=none;align=left;verticalAlign=top;spacingLeft=4;spacingRight=4;overflow=hidden;rotatable=0;points=[[0,0.5],[1,0.5]];portConstraint=eastwest;whiteSpace=wrap;html=1;" vertex="1" parent="nm4cw_B010M74hV_i2e3-30">
          <mxGeometry y="60" width="160" height="26" as="geometry" />
        </mxCell>
        <mxCell id="nm4cw_B010M74hV_i2e3-34" value="Visitor" style="swimlane;fontStyle=1;align=center;verticalAlign=top;childLayout=stackLayout;horizontal=1;startSize=26;horizontalStack=0;resizeParent=1;resizeParentMax=0;resizeLast=0;collapsible=1;marginBottom=0;whiteSpace=wrap;html=1;" vertex="1" parent="1">
          <mxGeometry x="280" y="80" width="160" height="86" as="geometry" />
        </mxCell>
        <mxCell id="nm4cw_B010M74hV_i2e3-35" value="// Recorre el AST" style="text;strokeColor=none;fillColor=none;align=left;verticalAlign=top;spacingLeft=4;spacingRight=4;overflow=hidden;rotatable=0;points=[[0,0.5],[1,0.5]];portConstraint=eastwest;whiteSpace=wrap;html=1;" vertex="1" parent="nm4cw_B010M74hV_i2e3-34">
          <mxGeometry y="26" width="160" height="26" as="geometry" />
        </mxCell>
        <mxCell id="nm4cw_B010M74hV_i2e3-36" value="" style="line;strokeWidth=1;fillColor=none;align=left;verticalAlign=middle;spacingTop=-1;spacingLeft=3;spacingRight=3;rotatable=0;labelPosition=right;points=[];portConstraint=eastwest;strokeColor=inherit;" vertex="1" parent="nm4cw_B010M74hV_i2e3-34">
          <mxGeometry y="52" width="160" height="8" as="geometry" />
        </mxCell>
        <mxCell id="nm4cw_B010M74hV_i2e3-37" value="+ method(type): type" style="text;strokeColor=none;fillColor=none;align=left;verticalAlign=top;spacingLeft=4;spacingRight=4;overflow=hidden;rotatable=0;points=[[0,0.5],[1,0.5]];portConstraint=eastwest;whiteSpace=wrap;html=1;" vertex="1" parent="nm4cw_B010M74hV_i2e3-34">
          <mxGeometry y="60" width="160" height="26" as="geometry" />
        </mxCell>
        <mxCell id="nm4cw_B010M74hV_i2e3-42" value="1" style="text;html=1;align=center;verticalAlign=middle;resizable=0;points=[];autosize=1;strokeColor=none;fillColor=none;" vertex="1" parent="1">
          <mxGeometry x="435" y="-212" width="30" height="30" as="geometry" />
        </mxCell>
        <mxCell id="nm4cw_B010M74hV_i2e3-43" value="1" style="text;html=1;align=center;verticalAlign=middle;resizable=0;points=[];autosize=1;strokeColor=none;fillColor=none;" vertex="1" parent="1">
          <mxGeometry x="355" y="-112" width="30" height="30" as="geometry" />
        </mxCell>
        <mxCell id="nm4cw_B010M74hV_i2e3-44" style="edgeStyle=orthogonalEdgeStyle;rounded=0;orthogonalLoop=1;jettySize=auto;html=1;" edge="1" parent="1" source="nm4cw_B010M74hV_i2e3-33" target="nm4cw_B010M74hV_i2e3-34">
          <mxGeometry relative="1" as="geometry" />
        </mxCell>
        <mxCell id="nm4cw_B010M74hV_i2e3-45" value="1" style="text;html=1;align=center;verticalAlign=middle;resizable=0;points=[];autosize=1;strokeColor=none;fillColor=none;" vertex="1" parent="1">
          <mxGeometry x="255" y="-42" width="30" height="30" as="geometry" />
        </mxCell>
        <mxCell id="nm4cw_B010M74hV_i2e3-46" value="1" style="text;html=1;align=center;verticalAlign=middle;resizable=0;points=[];autosize=1;strokeColor=none;fillColor=none;" vertex="1" parent="1">
          <mxGeometry x="325" y="58" width="30" height="30" as="geometry" />
        </mxCell>
        <mxCell id="nm4cw_B010M74hV_i2e3-51" value="" style="endArrow=block;dashed=1;endFill=0;endSize=12;html=1;rounded=0;entryX=0.563;entryY=1.154;entryDx=0;entryDy=0;entryPerimeter=0;exitX=0.467;exitY=-0.03;exitDx=0;exitDy=0;exitPerimeter=0;" edge="1" parent="1" source="nm4cw_B010M74hV_i2e3-5" target="nm4cw_B010M74hV_i2e3-37">
          <mxGeometry width="160" relative="1" as="geometry">
            <mxPoint x="350" y="200" as="sourcePoint" />
            <mxPoint x="510" y="200" as="targetPoint" />
          </mxGeometry>
        </mxCell>
        <mxCell id="nm4cw_B010M74hV_i2e3-52" value="Implements" style="text;html=1;align=center;verticalAlign=middle;resizable=0;points=[];autosize=1;strokeColor=none;fillColor=none;" vertex="1" parent="1">
          <mxGeometry x="325" y="188" width="90" height="30" as="geometry" />
        </mxCell>
      </root>
    </mxGraphModel>
  </diagram>
</mxfile>
